<svg width="9" height="16" viewBox="0 0 9 16" fill="none" xmlns="http://www.w3.org/2000/svg">
<path d="M8.52364 14.766L1.75751 7.99997L8.52364 1.2339C8.65627 1.09658 8.72966 0.912661 8.728 0.72176C8.72634 0.530858 8.64977 0.348244 8.51478 0.213251C8.37978 0.0782583 8.19717 0.00168641 8.00627 2.75236e-05C7.81537 -0.00163136 7.63145 0.0717556 7.49413 0.204382L0.213268 7.48524C0.145653 7.55283 0.0920172 7.63308 0.0554228 7.72141C0.0188284 7.80973 -7.62939e-06 7.9044 -7.62939e-06 8C-7.62939e-06 8.0956 0.0188284 8.19027 0.0554228 8.2786C0.0920172 8.36692 0.145653 8.44717 0.213268 8.51476L7.49413 15.7956C7.63145 15.9282 7.81537 16.0016 8.00627 16C8.19717 15.9983 8.37978 15.9217 8.51478 15.7867C8.64977 15.6518 8.72634 15.4691 8.728 15.2782C8.72966 15.0873 8.65627 14.9034 8.52364 14.7661V14.766Z" fill="#DDFFAB"/>
</svg>
