<svg width="10" height="16" viewBox="0 0 10 16" fill="none" xmlns="http://www.w3.org/2000/svg">
<path d="M0.568396 14.766L7.33453 7.99997L0.568396 1.2339C0.435769 1.09658 0.362382 0.912661 0.364041 0.72176C0.3657 0.530858 0.442273 0.348244 0.577266 0.213251C0.712259 0.0782583 0.894872 0.00168641 1.08577 2.75236e-05C1.27668 -0.00163136 1.46059 0.0717556 1.59791 0.204382L8.87877 7.48524C8.94639 7.55283 9.00002 7.63308 9.03662 7.72141C9.07321 7.80973 9.09205 7.9044 9.09205 8C9.09205 8.0956 9.07321 8.19027 9.03662 8.2786C9.00002 8.36692 8.94639 8.44717 8.87877 8.51476L1.59791 15.7956C1.46059 15.9282 1.27668 16.0016 1.08577 16C0.894872 15.9983 0.712259 15.9217 0.577266 15.7867C0.442273 15.6518 0.3657 15.4691 0.364041 15.2782C0.362382 15.0873 0.435769 14.9034 0.568396 14.7661V14.766Z" fill="#DDFFAB"/>
</svg>
