<svg width="15" height="13" viewBox="0 0 15 13" fill="none" xmlns="http://www.w3.org/2000/svg">
<path d="M12.4488 0.599854C13.0456 0.599854 13.6179 0.836906 14.0398 1.25886C14.4618 1.68082 14.6988 2.25312 14.6988 2.84985V10.0499C14.6988 10.6466 14.4618 11.2189 14.0398 11.6408C13.6179 12.0628 13.0456 12.2999 12.4488 12.2999H2.54883C1.95209 12.2999 1.37979 12.0628 0.957838 11.6408C0.535881 11.2189 0.298828 10.6466 0.298828 10.0499V2.84985C0.298828 2.25312 0.535881 1.68082 0.957838 1.25886C1.37979 0.836906 1.95209 0.599854 2.54883 0.599854H12.4488ZM13.7988 4.16475L7.72743 7.73775C7.67003 7.77145 7.60587 7.792 7.53957 7.79792C7.47327 7.80383 7.40649 7.79496 7.34403 7.77195L7.27023 7.73775L1.19883 4.16655V10.0499C1.19883 10.4079 1.34106 10.7513 1.59423 11.0044C1.84741 11.2576 2.19079 11.3999 2.54883 11.3999H12.4488C12.8069 11.3999 13.1502 11.2576 13.4034 11.0044C13.6566 10.7513 13.7988 10.4079 13.7988 10.0499V4.16475ZM12.4488 1.49985H2.54883C2.19079 1.49985 1.84741 1.64209 1.59423 1.89526C1.34106 2.14843 1.19883 2.49181 1.19883 2.84985V3.12165L7.49883 6.82785L13.7988 3.11985V2.84985C13.7988 2.49181 13.6566 2.14843 13.4034 1.89526C13.1502 1.64209 12.8069 1.49985 12.4488 1.49985Z" fill="#FF0C66"/>
</svg>
