<svg width="18" height="18" viewBox="0 0 18 18" fill="none" xmlns="http://www.w3.org/2000/svg">
<path d="M13.3655 17.72C13.1973 17.7195 13.0297 17.7011 12.8655 17.665C9.7388 17.0182 6.85828 15.5017 4.55548 13.29C2.30181 11.0734 0.738775 8.25128 0.0554784 5.16498C-0.025091 4.78033 -0.00531607 4.38143 0.112901 4.00664C0.231117 3.63185 0.443797 3.29379 0.730478 3.02498L2.73048 1.09998C2.83263 1.00337 2.95401 0.929395 3.08669 0.882871C3.21937 0.836347 3.36036 0.818325 3.50048 0.82998C3.64576 0.845136 3.78596 0.891937 3.91121 0.967089C4.03647 1.04224 4.14374 1.14392 4.22548 1.26498L6.72548 4.95998C6.81923 5.10335 6.86449 5.27303 6.85459 5.44405C6.84468 5.61506 6.78015 5.77839 6.67048 5.90998L5.41548 7.40998C5.9153 8.51621 6.62315 9.51602 7.50048 10.355C8.37213 11.2244 9.4024 11.9186 10.5355 12.4L12.0905 11.165C12.2211 11.0618 12.38 11.0007 12.5461 10.99C12.7122 10.9793 12.8777 11.0194 13.0205 11.105L16.7955 13.545C16.925 13.6223 17.0354 13.728 17.1183 13.854C17.2012 13.9801 17.2545 14.1233 17.2743 14.2729C17.294 14.4225 17.2796 14.5746 17.2322 14.7178C17.1848 14.861 17.1056 14.9917 17.0005 15.1L15.0505 17.03C14.829 17.2504 14.5661 17.4248 14.2769 17.5433C13.9877 17.6617 13.678 17.7217 13.3655 17.72ZM3.42048 1.81998L1.42048 3.74498C1.2592 3.89526 1.13982 4.08492 1.07407 4.29532C1.00832 4.50572 0.998467 4.72962 1.04548 4.94498C1.68084 7.84105 3.14134 10.4911 5.25048 12.575C7.41758 14.6558 10.1283 16.0822 13.0705 16.69C13.2932 16.7365 13.524 16.7271 13.7421 16.6625C13.9603 16.598 14.159 16.4803 14.3205 16.32L16.2705 14.39L12.6255 12.035L10.9555 13.365C10.8915 13.4156 10.8162 13.4498 10.736 13.4646C10.6559 13.4794 10.5733 13.4744 10.4955 13.45C9.10883 12.9391 7.85221 12.1281 6.81548 11.075C5.74316 10.0736 4.91079 8.84298 4.38048 7.47498C4.35804 7.39216 4.3573 7.30496 4.37831 7.22178C4.39933 7.13859 4.4414 7.0622 4.50048 6.99998L5.85048 5.38498L3.42048 1.81998Z" fill="#FF0C66"/>
</svg>
