<svg width="18" height="18" viewBox="0 0 18 18" fill="none" xmlns="http://www.w3.org/2000/svg">
<path d="M12.9154 7.35833C11.69 6.68323 10.3329 6.33189 8.95647 6.33334C7.57999 6.33479 6.22359 6.68898 4.99937 7.36666M11.7693 9.72479C10.8978 9.24695 9.93351 8.99856 8.95558 9.00001C7.97764 9.00146 7.01397 9.25271 6.14371 9.73313M10.6247 12.0917C10.109 11.8105 9.53892 11.6649 8.96097 11.6667C8.38088 11.6679 7.80889 11.8134 7.28954 12.0917M16.3892 9C16.3892 13.4183 13.0634 17 8.96068 17C4.85799 17 1.5321 13.4183 1.5321 9C1.5321 4.58172 4.85799 1 8.96068 1C13.0634 1 16.3892 4.58172 16.3892 9Z" stroke="white" stroke-width="2" stroke-linecap="round" stroke-linejoin="round"/>
</svg>
