<svg width="16" height="16" viewBox="0 0 16 16" fill="none" xmlns="http://www.w3.org/2000/svg">
<path fill-rule="evenodd" clip-rule="evenodd" d="M4.79921 0.048C5.59935 0.00872726 5.85446 0 7.89266 0C9.93086 0 10.186 0.00945454 10.9854 0.048C11.7849 0.0865454 12.3306 0.222545 12.8081 0.419636C13.3081 0.621091 13.7617 0.936 14.1369 1.34327C14.5189 1.74255 14.8135 2.22545 15.0018 2.75927C15.1873 3.26836 15.3142 3.85018 15.351 4.70109C15.3879 5.55564 15.3961 5.82764 15.3961 8C15.3961 10.1731 15.3872 10.4451 15.351 11.2982C15.3149 12.1491 15.1873 12.7309 15.0018 13.24C14.8135 13.7739 14.5184 14.2576 14.1369 14.6575C13.7617 15.0647 13.3081 15.3789 12.8081 15.5796C12.3306 15.7775 11.7849 15.9127 10.9868 15.952C10.186 15.9913 9.93086 16 7.89266 16C5.85446 16 5.59935 15.9905 4.79921 15.952C4.00112 15.9135 3.45542 15.7775 2.97793 15.5796C2.47719 15.3789 2.02351 15.0642 1.64846 14.6575C1.26673 14.2579 0.971322 13.7745 0.78284 13.2407C0.597983 12.7316 0.471107 12.1498 0.434272 11.2989C0.397437 10.4444 0.389252 10.1724 0.389252 8C0.389252 5.82691 0.398119 5.55491 0.434272 4.70255C0.470425 3.85018 0.597983 3.26836 0.78284 2.75927C0.9716 2.22551 1.26723 1.74205 1.64914 1.34255C2.02366 0.935637 2.47689 0.620686 2.97725 0.419636C3.45474 0.222545 4.00044 0.0872727 4.79853 0.048H4.79921ZM10.9247 1.488C10.1335 1.44945 9.89607 1.44145 7.89266 1.44145C5.88925 1.44145 5.65187 1.44945 4.8606 1.488C4.12868 1.52364 3.73168 1.65382 3.46701 1.76364C3.11708 1.90909 2.86674 2.08145 2.60412 2.36145C2.35518 2.61967 2.16359 2.93402 2.04341 3.28145C1.94041 3.56364 1.81831 3.98691 1.78489 4.76727C1.74873 5.61091 1.74123 5.864 1.74123 8C1.74123 10.136 1.74873 10.3891 1.78489 11.2327C1.81831 12.0131 1.94041 12.4364 2.04341 12.7185C2.16347 13.0655 2.35514 13.3804 2.60412 13.6385C2.84628 13.904 3.14164 14.1084 3.46701 14.2364C3.73168 14.3462 4.12868 14.4764 4.8606 14.512C5.65187 14.5505 5.88857 14.5585 7.89266 14.5585C9.89675 14.5585 10.1335 14.5505 10.9247 14.512C11.6566 14.4764 12.0536 14.3462 12.3183 14.2364C12.6682 14.0909 12.9186 13.9185 13.1812 13.6385C13.4302 13.3804 13.6219 13.0655 13.7419 12.7185C13.8449 12.4364 13.967 12.0131 14.0004 11.2327C14.0366 10.3891 14.0441 10.136 14.0441 8C14.0441 5.864 14.0366 5.61091 14.0004 4.76727C13.967 3.98691 13.8449 3.56364 13.7419 3.28145C13.6055 2.90836 13.4438 2.64145 13.1812 2.36145C12.939 2.09605 12.6442 1.89179 12.3183 1.76364C12.0536 1.65382 11.6566 1.52364 10.9247 1.488ZM6.93427 10.4662C7.46951 10.7037 8.0655 10.7358 8.62044 10.5569C9.17539 10.378 9.65486 9.99921 9.97698 9.48527C10.2991 8.97132 10.4439 8.35409 10.3866 7.73899C10.3292 7.12388 10.0734 6.54907 9.66278 6.11273C9.40101 5.8338 9.08448 5.62023 8.736 5.48738C8.38751 5.35453 8.01574 5.30572 7.64743 5.34445C7.27913 5.38318 6.92346 5.50849 6.60603 5.71137C6.28861 5.91424 6.01732 6.18963 5.81169 6.51771C5.60607 6.84579 5.47123 7.21839 5.41689 7.6087C5.36254 7.99901 5.39004 8.3973 5.49739 8.77492C5.60475 9.15254 5.78931 9.50008 6.03776 9.79253C6.28622 10.085 6.5924 10.315 6.93427 10.4662ZM5.16551 5.09236C5.52365 4.71053 5.94881 4.40764 6.41674 4.20099C6.88466 3.99434 7.38618 3.88798 7.89266 3.88798C8.39914 3.88798 8.90066 3.99434 9.36858 4.20099C9.83651 4.40764 10.2617 4.71053 10.6198 5.09236C10.9779 5.4742 11.262 5.92751 11.4558 6.4264C11.6497 6.92529 11.7494 7.46 11.7494 8C11.7494 8.54 11.6497 9.07471 11.4558 9.5736C11.262 10.0725 10.9779 10.5258 10.6198 10.9076C9.89652 11.6788 8.91554 12.112 7.89266 12.112C6.86978 12.112 5.8888 11.6788 5.16551 10.9076C4.44223 10.1365 4.03589 9.09058 4.03589 8C4.03589 6.90942 4.44223 5.86352 5.16551 5.09236ZM12.6048 4.50036C12.6935 4.41111 12.7646 4.30377 12.8137 4.18471C12.8629 4.06565 12.8891 3.93729 12.8909 3.80722C12.8927 3.67716 12.87 3.54803 12.8241 3.4275C12.7782 3.30696 12.7101 3.19746 12.6239 3.10548C12.5376 3.0135 12.4349 2.94091 12.3218 2.89201C12.2088 2.84311 12.0877 2.81889 11.9657 2.82079C11.8437 2.82268 11.7233 2.85066 11.6116 2.90305C11.5 2.95545 11.3993 3.0312 11.3156 3.12582C11.1528 3.30984 11.0636 3.55427 11.0671 3.80722C11.0705 4.06017 11.1663 4.30173 11.3341 4.48061C11.5019 4.6595 11.7284 4.76162 11.9657 4.76531C12.2029 4.769 12.4322 4.67396 12.6048 4.50036Z" fill="white"/>
</svg>
