<svg width="17" height="16" viewBox="0 0 17 16" fill="none" xmlns="http://www.w3.org/2000/svg">
<path d="M8.76715 0C4.34929 0 0.767151 3.58214 0.767151 8C0.767151 12.4179 4.34929 16 8.76715 16C13.185 16 16.7672 12.4179 16.7672 8C16.7672 3.58214 13.185 0 8.76715 0ZM12.6118 6.03036C12.6172 6.11429 12.6172 6.20179 12.6172 6.2875C12.6172 8.90893 10.6207 11.9286 6.97251 11.9286C5.84751 11.9286 4.80465 11.6018 3.92608 11.0393C4.08679 11.0571 4.24037 11.0643 4.40465 11.0643C5.33322 11.0643 6.18679 10.75 6.86715 10.2179C5.99572 10.2 5.26358 9.62857 5.01358 8.84286C5.31894 8.8875 5.59394 8.8875 5.90822 8.80714C5.45952 8.71598 5.05621 8.47229 4.76682 8.11747C4.47743 7.76265 4.31981 7.31858 4.32072 6.86071V6.83571C4.58322 6.98393 4.89215 7.075 5.21537 7.0875C4.94366 6.90642 4.72083 6.66109 4.56664 6.37327C4.41244 6.08544 4.33166 5.76402 4.33144 5.4375C4.33144 5.06786 4.42787 4.73036 4.60108 4.4375C5.09912 5.0506 5.7206 5.55204 6.42512 5.90922C7.12965 6.26641 7.90145 6.47135 8.69037 6.51071C8.41001 5.1625 9.41715 4.07143 10.6279 4.07143C11.1993 4.07143 11.7136 4.31071 12.0761 4.69643C12.5243 4.6125 12.9529 4.44464 13.335 4.21964C13.1868 4.67857 12.8761 5.06607 12.4636 5.31071C12.8636 5.26786 13.2493 5.15714 13.6064 5.00179C13.3368 5.39821 12.9993 5.75 12.6118 6.03036Z" fill="white"/>
</svg>
