<svg width="18" height="16" viewBox="0 0 18 16" fill="none" xmlns="http://www.w3.org/2000/svg">
<path d="M3.97387 0C2.21043 0 0.767151 1.41114 0.767151 3.1354V12.8651C0.767151 14.5893 2.21039 16 3.97387 16H13.9249C15.6884 16 17.1311 14.5894 17.1311 12.8651V3.1354C17.1311 1.41118 15.6884 0 13.9249 0H3.97387ZM4.78041 2.64032C5.62594 2.64032 6.14676 3.18306 6.16283 3.89647C6.16283 4.59414 5.62591 5.15212 4.76406 5.15212H4.74819C3.91875 5.15212 3.38265 4.59417 3.38265 3.89647C3.38265 3.18307 3.93497 2.64032 4.78039 2.64032H4.78041ZM12.0669 5.97474C13.693 5.97474 14.912 7.01394 14.912 9.24714V13.4162H12.4407V9.52666C12.4407 8.54927 12.0831 7.88245 11.1887 7.88245C10.506 7.88245 10.099 8.3319 9.92036 8.76607C9.85509 8.9214 9.83905 9.13834 9.83905 9.35564V13.4162H7.36778C7.36778 13.4162 7.40021 6.82746 7.36778 6.14525H9.83955V7.17488C10.168 6.67946 10.7554 5.97472 12.0669 5.97472V5.97474ZM3.52841 6.14577H5.99968V13.4162H3.52841V6.14577Z" fill="white"/>
</svg>
