<svg width="25" height="24" viewBox="0 0 25 24" fill="none" xmlns="http://www.w3.org/2000/svg">
<path d="M13.5772 11.9196L11.4369 10.6955C11.3442 10.6431 11.262 10.7095 11.262 10.8162V13.2048C11.262 13.3097 11.3459 13.3797 11.4369 13.3272L13.5615 12.1609C13.5838 12.1504 13.6029 12.1341 13.6168 12.1137C13.6307 12.0933 13.6389 12.0695 13.6405 12.0449C13.6421 12.0202 13.6371 11.9956 13.626 11.9736C13.6148 11.9515 13.598 11.9329 13.5772 11.9196ZM13.5772 11.9196L11.4369 10.6955C11.3442 10.6431 11.262 10.7095 11.262 10.8162V13.2048C11.262 13.3097 11.3459 13.3797 11.4369 13.3272L13.5615 12.1609C13.5838 12.1504 13.6029 12.1341 13.6168 12.1137C13.6307 12.0933 13.6389 12.0695 13.6405 12.0449C13.6421 12.0202 13.6371 11.9956 13.626 11.9736C13.6148 11.9515 13.598 11.9329 13.5772 11.9196ZM13.5772 11.9196L11.4369 10.6955C11.3442 10.6431 11.262 10.7095 11.262 10.8162V13.2048C11.262 13.3097 11.3459 13.3797 11.4369 13.3272L13.5615 12.1609C13.5838 12.1504 13.6029 12.1341 13.6168 12.1137C13.6307 12.0933 13.6389 12.0695 13.6405 12.0449C13.6421 12.0202 13.6371 11.9956 13.626 11.9736C13.6148 11.9515 13.598 11.9329 13.5772 11.9196ZM13.5772 11.9196L11.4369 10.6955C11.3442 10.6431 11.262 10.7095 11.262 10.8162V13.2048C11.262 13.3097 11.3459 13.3797 11.4369 13.3272L13.5615 12.1609C13.5838 12.1504 13.6029 12.1341 13.6168 12.1137C13.6307 12.0933 13.6389 12.0695 13.6405 12.0449C13.6421 12.0202 13.6371 11.9956 13.626 11.9736C13.6148 11.9515 13.598 11.9329 13.5772 11.9196ZM13.5772 11.9196L11.4369 10.6955C11.3442 10.6431 11.262 10.7095 11.262 10.8162V13.2048C11.262 13.3097 11.3459 13.3797 11.4369 13.3272L13.5615 12.1609C13.5838 12.1504 13.6029 12.1341 13.6168 12.1137C13.6307 12.0933 13.6389 12.0695 13.6405 12.0449C13.6421 12.0202 13.6371 11.9956 13.626 11.9736C13.6148 11.9515 13.598 11.9329 13.5772 11.9196ZM13.5772 11.9196L11.4369 10.6955C11.3442 10.6431 11.262 10.7095 11.262 10.8162V13.2048C11.262 13.3097 11.3459 13.3797 11.4369 13.3272L13.5615 12.1609C13.5838 12.1504 13.6029 12.1341 13.6168 12.1137C13.6307 12.0933 13.6389 12.0695 13.6405 12.0449C13.6421 12.0202 13.6371 11.9956 13.626 11.9736C13.6148 11.9515 13.598 11.9329 13.5772 11.9196ZM13.5772 11.9196L11.4369 10.6955C11.3442 10.6431 11.262 10.7095 11.262 10.8162V13.2048C11.262 13.3097 11.3459 13.3797 11.4369 13.3272L13.5615 12.1609C13.5838 12.1504 13.6029 12.1341 13.6168 12.1137C13.6307 12.0933 13.6389 12.0695 13.6405 12.0449C13.6421 12.0202 13.6371 11.9956 13.626 11.9736C13.6148 11.9515 13.598 11.9329 13.5772 11.9196ZM13.5772 11.9196L11.4369 10.6955C11.3442 10.6431 11.262 10.7095 11.262 10.8162V13.2048C11.262 13.3097 11.3459 13.3797 11.4369 13.3272L13.5615 12.1609C13.5838 12.1504 13.6029 12.1341 13.6168 12.1137C13.6307 12.0933 13.6389 12.0695 13.6405 12.0449C13.6421 12.0202 13.6371 11.9956 13.626 11.9736C13.6148 11.9515 13.598 11.9329 13.5772 11.9196ZM13.5772 11.9196L11.4369 10.6955C11.3442 10.6431 11.262 10.7095 11.262 10.8162V13.2048C11.262 13.3097 11.3459 13.3797 11.4369 13.3272L13.5615 12.1609C13.5838 12.1504 13.6029 12.1341 13.6168 12.1137C13.6307 12.0933 13.6389 12.0695 13.6405 12.0449C13.6421 12.0202 13.6371 11.9956 13.626 11.9736C13.6148 11.9515 13.598 11.9329 13.5772 11.9196ZM13.5772 11.9196L11.4369 10.6955C11.3442 10.6431 11.262 10.7095 11.262 10.8162V13.2048C11.262 13.3097 11.3459 13.3797 11.4369 13.3272L13.5615 12.1609C13.5838 12.1504 13.6029 12.1341 13.6168 12.1137C13.6307 12.0933 13.6389 12.0695 13.6405 12.0449C13.6421 12.0202 13.6371 11.9956 13.626 11.9736C13.6148 11.9515 13.598 11.9329 13.5772 11.9196ZM13.5772 11.9196L11.4369 10.6955C11.3442 10.6431 11.262 10.7095 11.262 10.8162V13.2048C11.262 13.3097 11.3459 13.3797 11.4369 13.3272L13.5615 12.1609C13.5838 12.1504 13.6029 12.1341 13.6168 12.1137C13.6307 12.0933 13.6389 12.0695 13.6405 12.0449C13.6421 12.0202 13.6371 11.9956 13.626 11.9736C13.6148 11.9515 13.598 11.9329 13.5772 11.9196ZM13.5772 11.9196L11.4369 10.6955C11.3442 10.6431 11.262 10.7095 11.262 10.8162V13.2048C11.262 13.3097 11.3459 13.3797 11.4369 13.3272L13.5615 12.1609C13.5838 12.1504 13.6029 12.1341 13.6168 12.1137C13.6307 12.0933 13.6389 12.0695 13.6405 12.0449C13.6421 12.0202 13.6371 11.9956 13.626 11.9736C13.6148 11.9515 13.598 11.9329 13.5772 11.9196ZM13.5772 11.9196L11.4369 10.6955C11.3442 10.6431 11.262 10.7095 11.262 10.8162V13.2048C11.262 13.3097 11.3459 13.3797 11.4369 13.3272L13.5615 12.1609C13.5838 12.1504 13.6029 12.1341 13.6168 12.1137C13.6307 12.0933 13.6389 12.0695 13.6405 12.0449C13.6421 12.0202 13.6371 11.9956 13.626 11.9736C13.6148 11.9515 13.598 11.9329 13.5772 11.9196ZM13.5772 11.9196L11.4369 10.6955C11.3442 10.6431 11.262 10.7095 11.262 10.8162V13.2048C11.262 13.3097 11.3459 13.3797 11.4369 13.3272L13.5615 12.1609C13.5838 12.1504 13.6029 12.1341 13.6168 12.1137C13.6307 12.0933 13.6389 12.0695 13.6405 12.0449C13.6421 12.0202 13.6371 11.9956 13.626 11.9736C13.6148 11.9515 13.598 11.9329 13.5772 11.9196ZM13.5772 11.9196L11.4369 10.6955C11.3442 10.6431 11.262 10.7095 11.262 10.8162V13.2048C11.262 13.3097 11.3459 13.3797 11.4369 13.3272L13.5615 12.1609C13.5838 12.1504 13.6029 12.1341 13.6168 12.1137C13.6307 12.0933 13.6389 12.0695 13.6405 12.0449C13.6421 12.0202 13.6371 11.9956 13.626 11.9736C13.6148 11.9515 13.598 11.9329 13.5772 11.9196ZM13.5772 11.9196L11.4369 10.6955C11.3442 10.6431 11.262 10.7095 11.262 10.8162V13.2048C11.262 13.3097 11.3459 13.3797 11.4369 13.3272L13.5615 12.1609C13.5838 12.1504 13.6029 12.1341 13.6168 12.1137C13.6307 12.0933 13.6389 12.0695 13.6405 12.0449C13.6421 12.0202 13.6371 11.9956 13.626 11.9736C13.6148 11.9515 13.598 11.9329 13.5772 11.9196ZM13.5772 11.9196L11.4369 10.6955C11.3442 10.6431 11.262 10.7095 11.262 10.8162V13.2048C11.262 13.3097 11.3459 13.3797 11.4369 13.3272L13.5615 12.1609C13.5838 12.1504 13.6029 12.1341 13.6168 12.1137C13.6307 12.0933 13.6389 12.0695 13.6405 12.0449C13.6421 12.0202 13.6371 11.9956 13.626 11.9736C13.6148 11.9515 13.598 11.9329 13.5772 11.9196ZM13.5772 11.9196L11.4369 10.6955C11.3442 10.6431 11.262 10.7095 11.262 10.8162V13.2048C11.262 13.3097 11.3459 13.3797 11.4369 13.3272L13.5615 12.1609C13.5838 12.1504 13.6029 12.1341 13.6168 12.1137C13.6307 12.0933 13.6389 12.0695 13.6405 12.0449C13.6421 12.0202 13.6371 11.9956 13.626 11.9736C13.6148 11.9515 13.598 11.9329 13.5772 11.9196ZM13.5772 11.9196L11.4369 10.6955C11.3442 10.6431 11.262 10.7095 11.262 10.8162V13.2048C11.262 13.3097 11.3459 13.3797 11.4369 13.3272L13.5615 12.1609C13.5838 12.1504 13.6029 12.1341 13.6168 12.1137C13.6307 12.0933 13.6389 12.0695 13.6405 12.0449C13.6421 12.0202 13.6371 11.9956 13.626 11.9736C13.6148 11.9515 13.598 11.9329 13.5772 11.9196ZM13.5772 11.9196L11.4369 10.6955C11.3442 10.6431 11.262 10.7095 11.262 10.8162V13.2048C11.262 13.3097 11.3459 13.3797 11.4369 13.3272L13.5615 12.1609C13.5838 12.1504 13.6029 12.1341 13.6168 12.1137C13.6307 12.0933 13.6389 12.0695 13.6405 12.0449C13.6421 12.0202 13.6371 11.9956 13.626 11.9736C13.6148 11.9515 13.598 11.9329 13.5772 11.9196ZM12.1311 4C10.5488 4 9.00211 4.46919 7.68651 5.34824C6.37092 6.22729 5.34554 7.47672 4.74004 8.93853C4.13454 10.4003 3.97611 12.0089 4.28479 13.5607C4.59348 15.1126 5.3554 16.538 6.47422 17.6568C7.59304 18.7757 9.0185 19.5376 10.5704 19.8463C12.1222 20.155 13.7307 19.9965 15.1925 19.391C16.6543 18.7855 17.9038 17.7602 18.7828 16.4446C19.6619 15.129 20.1311 13.5822 20.1311 12C20.1288 9.87898 19.2852 7.84549 17.7854 6.3457C16.2856 4.84591 14.2521 4.00231 12.1311 4ZM16.9206 13.2835C16.9206 13.8281 16.7044 14.3505 16.3194 14.7357C15.9345 15.121 15.4123 15.3377 14.8677 15.3381H9.53785C8.99323 15.3377 8.47107 15.121 8.08613 14.7357C7.70119 14.3505 7.48496 13.8281 7.48496 13.2835V10.7864C7.48588 10.2426 7.70258 9.72133 8.08747 9.33709C8.47236 8.95285 8.99399 8.73705 9.53785 8.73705H14.8677C15.4115 8.73705 15.9332 8.95285 16.3181 9.33709C16.703 9.72133 16.9197 10.2426 16.9206 10.7864V13.2835ZM13.5772 11.9196L11.4369 10.6955C11.3442 10.6431 11.262 10.7095 11.262 10.8162V13.2048C11.262 13.3097 11.3459 13.3797 11.4369 13.3272L13.5615 12.1609C13.5838 12.1504 13.6029 12.1341 13.6168 12.1137C13.6307 12.0933 13.6389 12.0695 13.6405 12.0449C13.6421 12.0202 13.6371 11.9956 13.626 11.9736C13.6148 11.9515 13.598 11.9329 13.5772 11.9196ZM13.5772 11.9196L11.4369 10.6955C11.3442 10.6431 11.262 10.7095 11.262 10.8162V13.2048C11.262 13.3097 11.3459 13.3797 11.4369 13.3272L13.5615 12.1609C13.5838 12.1504 13.6029 12.1341 13.6168 12.1137C13.6307 12.0933 13.6389 12.0695 13.6405 12.0449C13.6421 12.0202 13.6371 11.9956 13.626 11.9736C13.6148 11.9515 13.598 11.9329 13.5772 11.9196ZM13.5772 11.9196L11.4369 10.6955C11.3442 10.6431 11.262 10.7095 11.262 10.8162V13.2048C11.262 13.3097 11.3459 13.3797 11.4369 13.3272L13.5615 12.1609C13.5838 12.1504 13.6029 12.1341 13.6168 12.1137C13.6307 12.0933 13.6389 12.0695 13.6405 12.0449C13.6421 12.0202 13.6371 11.9956 13.626 11.9736C13.6148 11.9515 13.598 11.9329 13.5772 11.9196ZM13.5772 11.9196L11.4369 10.6955C11.3442 10.6431 11.262 10.7095 11.262 10.8162V13.2048C11.262 13.3097 11.3459 13.3797 11.4369 13.3272L13.5615 12.1609C13.5838 12.1504 13.6029 12.1341 13.6168 12.1137C13.6307 12.0933 13.6389 12.0695 13.6405 12.0449C13.6421 12.0202 13.6371 11.9956 13.626 11.9736C13.6148 11.9515 13.598 11.9329 13.5772 11.9196ZM13.5772 11.9196L11.4369 10.6955C11.3442 10.6431 11.262 10.7095 11.262 10.8162V13.2048C11.262 13.3097 11.3459 13.3797 11.4369 13.3272L13.5615 12.1609C13.5838 12.1504 13.6029 12.1341 13.6168 12.1137C13.6307 12.0933 13.6389 12.0695 13.6405 12.0449C13.6421 12.0202 13.6371 11.9956 13.626 11.9736C13.6148 11.9515 13.598 11.9329 13.5772 11.9196ZM13.5772 11.9196L11.4369 10.6955C11.3442 10.6431 11.262 10.7095 11.262 10.8162V13.2048C11.262 13.3097 11.3459 13.3797 11.4369 13.3272L13.5615 12.1609C13.5838 12.1504 13.6029 12.1341 13.6168 12.1137C13.6307 12.0933 13.6389 12.0695 13.6405 12.0449C13.6421 12.0202 13.6371 11.9956 13.626 11.9736C13.6148 11.9515 13.598 11.9329 13.5772 11.9196ZM13.5772 11.9196L11.4369 10.6955C11.3442 10.6431 11.262 10.7095 11.262 10.8162V13.2048C11.262 13.3097 11.3459 13.3797 11.4369 13.3272L13.5615 12.1609C13.5838 12.1504 13.6029 12.1341 13.6168 12.1137C13.6307 12.0933 13.6389 12.0695 13.6405 12.0449C13.6421 12.0202 13.6371 11.9956 13.626 11.9736C13.6148 11.9515 13.598 11.9329 13.5772 11.9196ZM13.5772 11.9196L11.4369 10.6955C11.3442 10.6431 11.262 10.7095 11.262 10.8162V13.2048C11.262 13.3097 11.3459 13.3797 11.4369 13.3272L13.5615 12.1609C13.5838 12.1504 13.6029 12.1341 13.6168 12.1137C13.6307 12.0933 13.6389 12.0695 13.6405 12.0449C13.6421 12.0202 13.6371 11.9956 13.626 11.9736C13.6148 11.9515 13.598 11.9329 13.5772 11.9196ZM13.5772 11.9196L11.4369 10.6955C11.3442 10.6431 11.262 10.7095 11.262 10.8162V13.2048C11.262 13.3097 11.3459 13.3797 11.4369 13.3272L13.5615 12.1609C13.5838 12.1504 13.6029 12.1341 13.6168 12.1137C13.6307 12.0933 13.6389 12.0695 13.6405 12.0449C13.6421 12.0202 13.6371 11.9956 13.626 11.9736C13.6148 11.9515 13.598 11.9329 13.5772 11.9196ZM13.5772 11.9196L11.4369 10.6955C11.3442 10.6431 11.262 10.7095 11.262 10.8162V13.2048C11.262 13.3097 11.3459 13.3797 11.4369 13.3272L13.5615 12.1609C13.5838 12.1504 13.6029 12.1341 13.6168 12.1137C13.6307 12.0933 13.6389 12.0695 13.6405 12.0449C13.6421 12.0202 13.6371 11.9956 13.626 11.9736C13.6148 11.9515 13.598 11.9329 13.5772 11.9196ZM13.5772 11.9196L11.4369 10.6955C11.3442 10.6431 11.262 10.7095 11.262 10.8162V13.2048C11.262 13.3097 11.3459 13.3797 11.4369 13.3272L13.5615 12.1609C13.5838 12.1504 13.6029 12.1341 13.6168 12.1137C13.6307 12.0933 13.6389 12.0695 13.6405 12.0449C13.6421 12.0202 13.6371 11.9956 13.626 11.9736C13.6148 11.9515 13.598 11.9329 13.5772 11.9196ZM13.5772 11.9196L11.4369 10.6955C11.3442 10.6431 11.262 10.7095 11.262 10.8162V13.2048C11.262 13.3097 11.3459 13.3797 11.4369 13.3272L13.5615 12.1609C13.5838 12.1504 13.6029 12.1341 13.6168 12.1137C13.6307 12.0933 13.6389 12.0695 13.6405 12.0449C13.6421 12.0202 13.6371 11.9956 13.626 11.9736C13.6148 11.9515 13.598 11.9329 13.5772 11.9196ZM13.5772 11.9196L11.4369 10.6955C11.3442 10.6431 11.262 10.7095 11.262 10.8162V13.2048C11.262 13.3097 11.3459 13.3797 11.4369 13.3272L13.5615 12.1609C13.5838 12.1504 13.6029 12.1341 13.6168 12.1137C13.6307 12.0933 13.6389 12.0695 13.6405 12.0449C13.6421 12.0202 13.6371 11.9956 13.626 11.9736C13.6148 11.9515 13.598 11.9329 13.5772 11.9196ZM13.5772 11.9196L11.4369 10.6955C11.3442 10.6431 11.262 10.7095 11.262 10.8162V13.2048C11.262 13.3097 11.3459 13.3797 11.4369 13.3272L13.5615 12.1609C13.5838 12.1504 13.6029 12.1341 13.6168 12.1137C13.6307 12.0933 13.6389 12.0695 13.6405 12.0449C13.6421 12.0202 13.6371 11.9956 13.626 11.9736C13.6148 11.9515 13.598 11.9329 13.5772 11.9196ZM13.5772 11.9196L11.4369 10.6955C11.3442 10.6431 11.262 10.7095 11.262 10.8162V13.2048C11.262 13.3097 11.3459 13.3797 11.4369 13.3272L13.5615 12.1609C13.5838 12.1504 13.6029 12.1341 13.6168 12.1137C13.6307 12.0933 13.6389 12.0695 13.6405 12.0449C13.6421 12.0202 13.6371 11.9956 13.626 11.9736C13.6148 11.9515 13.598 11.9329 13.5772 11.9196ZM13.5772 11.9196L11.4369 10.6955C11.3442 10.6431 11.262 10.7095 11.262 10.8162V13.2048C11.262 13.3097 11.3459 13.3797 11.4369 13.3272L13.5615 12.1609C13.5838 12.1504 13.6029 12.1341 13.6168 12.1137C13.6307 12.0933 13.6389 12.0695 13.6405 12.0449C13.6421 12.0202 13.6371 11.9956 13.626 11.9736C13.6148 11.9515 13.598 11.9329 13.5772 11.9196ZM13.5772 11.9196L11.4369 10.6955C11.3442 10.6431 11.262 10.7095 11.262 10.8162V13.2048C11.262 13.3097 11.3459 13.3797 11.4369 13.3272L13.5615 12.1609C13.5838 12.1504 13.6029 12.1341 13.6168 12.1137C13.6307 12.0933 13.6389 12.0695 13.6405 12.0449C13.6421 12.0202 13.6371 11.9956 13.626 11.9736C13.6148 11.9515 13.598 11.9329 13.5772 11.9196ZM13.5772 11.9196L11.4369 10.6955C11.3442 10.6431 11.262 10.7095 11.262 10.8162V13.2048C11.262 13.3097 11.3459 13.3797 11.4369 13.3272L13.5615 12.1609C13.5838 12.1504 13.6029 12.1341 13.6168 12.1137C13.6307 12.0933 13.6389 12.0695 13.6405 12.0449C13.6421 12.0202 13.6371 11.9956 13.626 11.9736C13.6148 11.9515 13.598 11.9329 13.5772 11.9196ZM13.5772 11.9196L11.4369 10.6955C11.3442 10.6431 11.262 10.7095 11.262 10.8162V13.2048C11.262 13.3097 11.3459 13.3797 11.4369 13.3272L13.5615 12.1609C13.5838 12.1504 13.6029 12.1341 13.6168 12.1137C13.6307 12.0933 13.6389 12.0695 13.6405 12.0449C13.6421 12.0202 13.6371 11.9956 13.626 11.9736C13.6148 11.9515 13.598 11.9329 13.5772 11.9196Z" fill="white"/>
</svg>
