<svg width="92" height="24" viewBox="0 0 92 24" fill="none" xmlns="http://www.w3.org/2000/svg">
<path d="M8.70227 0.0102273C9.71893 7.9784 10.7367 15.953 11.7557 23.9341C11.6591 23.9477 11.5625 23.9568 11.4648 23.9613H8.58181C8.33977 23.9613 8.25568 23.8795 8.23068 23.6511C8.03598 22.0655 7.84128 20.481 7.64659 18.8977C7.61704 18.6466 7.55681 18.5329 7.27386 18.5398C6.44091 18.5591 5.60454 18.5534 4.77386 18.5398C4.54659 18.5398 4.44772 18.5807 4.42045 18.8398C4.24772 20.4159 4.04432 21.9875 3.86363 23.5636C3.83295 23.8477 3.75 23.9693 3.42954 23.9534C2.41591 23.9284 1.40341 23.9534 0.389772 23.9534C0.269318 23.9534 0.146591 23.9398 0 23.9318C0.997727 15.947 1.99583 7.96969 2.99432 0L8.70227 0.0102273ZM6.05681 6.06477H5.96704L4.88977 15.0114H7.1625C6.79318 12.0125 6.42727 9.03977 6.05681 6.06477Z" fill="white"/>
<path d="M15.7663 0.0272763C15.7836 0.0181311 15.8019 0.0108919 15.8208 0.0056854C17.8742 0.0272763 19.9379 -0.06136 21.981 0.0965944C24.1401 0.262503 25.8083 2.05682 26.0719 4.20909C26.1132 4.55077 26.1352 4.89449 26.1378 5.23864V18.7079C26.1378 19.9398 25.889 21.0943 25.1254 22.0886C24.7279 22.6313 24.2126 23.0768 23.6182 23.3917C23.0238 23.7067 22.3658 23.8828 21.6935 23.9068C19.7674 23.9932 17.8299 23.95 15.8981 23.9591C15.8516 23.9539 15.8059 23.9436 15.7617 23.9284L15.7663 0.0272763ZM19.5367 3.50682V20.4227C20.1208 20.4227 20.6731 20.4636 21.214 20.4125C21.9367 20.3489 22.3833 19.7489 22.3833 18.9182V4.80227C22.3747 4.47948 22.2483 4.17098 22.0279 3.93504C21.8074 3.69909 21.5082 3.55202 21.1867 3.52159C20.6435 3.47727 20.0992 3.50682 19.5367 3.50682Z" fill="white"/>
<path d="M30.173 16.2793H33.765V19.244C33.7537 19.594 33.8817 19.9342 34.121 20.1899C34.3602 20.4455 34.6912 20.5958 35.0412 20.6077C35.0745 20.6077 35.1074 20.6077 35.14 20.6077C35.31 20.6169 35.4801 20.5925 35.6407 20.5359C35.8013 20.4793 35.9491 20.3916 36.0757 20.2778C36.2024 20.164 36.3054 20.0264 36.3788 19.8728C36.4522 19.7192 36.4946 19.5527 36.5037 19.3827C36.506 19.3448 36.506 19.3069 36.5037 19.269C36.5037 18.4736 36.5139 17.6781 36.4537 16.8906C36.3919 16.3364 36.1646 15.8137 35.8014 15.3906C35.3421 14.8065 34.8536 14.246 34.3377 13.7111C33.74 13.1031 33.0877 12.5429 32.4673 11.9577C30.9616 10.5156 30.098 8.77926 30.1514 6.64063C30.1707 5.75767 30.1355 4.86676 30.2343 3.9929C30.3584 2.97064 30.8291 2.02178 31.5679 1.30446C32.3067 0.587142 33.2691 0.144694 34.2946 0.0508571C35.1142 -0.0518704 35.9458 0.00133722 36.7457 0.207675C37.6656 0.454362 38.4846 0.984329 39.0864 1.72246C39.6883 2.46059 40.0426 3.36943 40.0991 4.32017C40.1627 5.40313 40.1355 6.49063 40.1491 7.57585C40.1444 7.62208 40.1353 7.66774 40.1218 7.71222C40.0207 7.71222 39.9275 7.72926 39.8241 7.72926H36.8389C36.5957 7.72926 36.5059 7.66676 36.5116 7.40994C36.5252 6.54631 36.5116 5.68154 36.5116 4.81676C36.5116 3.81336 35.8127 3.23836 34.8287 3.41222C34.5562 3.4501 34.3049 3.57972 34.116 3.77971C33.9272 3.97969 33.8122 4.23807 33.79 4.51222C33.7516 5.31528 33.7557 6.11982 33.8025 6.92244C33.8482 7.52044 34.083 8.08838 34.473 8.54403C34.9741 9.15767 35.4957 9.75767 36.0468 10.3247C36.598 10.8918 37.2571 11.4429 37.8514 12.0134C39.365 13.4588 40.1934 15.2122 40.148 17.3315C40.1664 18.2652 40.1284 19.1991 40.0343 20.1281C39.7434 22.1963 38.1025 23.7031 36.0184 23.9361C35.1207 24.0688 34.2044 23.9942 33.34 23.7179C31.4173 23.0361 30.3673 21.6338 30.1912 19.627C30.0957 18.5361 30.1764 17.4236 30.1764 16.2838" fill="white"/>
<path d="M45.1834 14.0198V23.0744C45.1868 23.2044 45.1822 23.3346 45.1697 23.4641C45.156 23.5881 45.0966 23.7026 45.003 23.7851C44.9094 23.8676 44.7884 23.9122 44.6636 23.9102C44.5389 23.9083 44.4193 23.8598 44.3284 23.7744C44.2375 23.6889 44.1817 23.5726 44.172 23.4482C44.1625 23.3478 44.1587 23.2468 44.1606 23.1459V0.772096C44.1606 0.125505 44.2811 0.0050505 44.9163 0.0050505C46.1322 0.0050505 47.3459 -0.00631313 48.5618 0.0050505C50.5106 0.0300505 52.0356 1.22437 52.4584 3.07323C52.5457 3.46844 52.5903 3.8719 52.5913 4.27664C52.6049 6.10846 52.5913 7.94027 52.5913 9.77323C52.6108 10.4329 52.4843 11.0886 52.2209 11.6937C51.5209 13.1846 50.3118 13.938 48.6981 14.0141C47.6572 14.063 46.6129 14.0255 45.5811 14.0255L45.1834 14.0198ZM45.205 1.07664V12.9823C46.455 12.9823 47.6788 13.0619 48.8936 12.963C50.4652 12.8323 51.4413 11.7641 51.5481 10.1903C51.6027 9.36414 51.5856 8.53232 51.5822 7.70277C51.5822 6.36755 51.597 5.02891 51.5334 3.69709C51.509 3.03532 51.2433 2.40535 50.7863 1.92613C50.3292 1.44691 49.7126 1.1516 49.0527 1.09596C47.7868 1.0005 46.5084 1.0721 45.205 1.0721V1.07664Z" fill="white"/>
<path d="M57.6393 22.903H63.1665C63.5563 22.903 63.7631 23.0644 63.7779 23.3803C63.7951 23.5051 63.762 23.6315 63.6859 23.7319C63.6098 23.8323 63.497 23.8983 63.3722 23.9155C63.348 23.9172 63.3237 23.9172 63.2995 23.9155H57.2768C56.762 23.9155 56.6097 23.7633 56.6097 23.2474V0.651913C56.604 0.57171 56.604 0.491206 56.6097 0.411004C56.6307 0.288634 56.6969 0.178617 56.7952 0.102823C56.8935 0.0270277 57.0168 -0.00899558 57.1404 0.00191305C57.2633 -0.000175568 57.3824 0.0447858 57.4732 0.127595C57.564 0.210404 57.6198 0.324799 57.6291 0.447367C57.6359 0.558247 57.6359 0.669442 57.6291 0.780322V22.903H57.6393Z" fill="white"/>
<path d="M69.5716 17.8966C69.4443 18.8432 69.3216 19.7534 69.1989 20.6625C69.0761 21.5716 68.9557 22.5079 68.833 23.4295C68.8279 23.5689 68.7678 23.7006 68.6657 23.7956C68.5636 23.8906 68.428 23.9413 68.2886 23.9364C68.26 23.9352 68.2315 23.9318 68.2034 23.9261C67.9114 23.8875 67.7489 23.6477 67.792 23.2932C67.9273 22.2511 68.067 21.2079 68.2057 20.1761C68.4784 18.142 68.7519 16.1079 69.0261 14.0739C69.3004 12.0398 69.5761 9.98636 69.8534 7.91363C70.1261 5.89015 70.397 3.86591 70.6659 1.84091C70.7284 1.38068 70.7886 0.919318 70.8614 0.460227C70.8613 0.39937 70.8735 0.339128 70.8972 0.283072C70.9209 0.227016 70.9556 0.176288 70.9993 0.133896C71.0429 0.0915045 71.0947 0.0583124 71.1514 0.0362882C71.2081 0.014264 71.2687 0.00385611 71.3295 0.00568182H71.35C72.1795 -0.00189394 73.0087 -0.00189394 73.8375 0.00568182C74.142 0.00568182 74.3 0.172727 74.3443 0.503409C74.4943 1.60454 74.6386 2.70682 74.7852 3.81591L75.6034 9.91818L76.3625 15.567C76.6383 17.6125 76.9125 19.6579 77.1852 21.7034C77.2568 22.2352 77.3386 22.7648 77.3932 23.2943C77.4341 23.6841 77.2648 23.9125 76.9568 23.9273C76.8321 23.9406 76.7071 23.904 76.6093 23.8254C76.5116 23.7468 76.4489 23.6326 76.4352 23.5079V23.4579C76.2716 22.2682 76.1136 21.0716 75.9545 19.8829C75.8761 19.2989 75.8023 18.6989 75.7091 18.1102C75.6966 18.0307 75.5955 17.9034 75.5318 17.9034C73.5602 17.892 71.5864 17.8943 69.5739 17.8943L69.5716 17.8966ZM75.5523 16.8534C74.8489 11.5739 74.1534 6.31818 73.4511 1.04545H71.8023C71.1045 6.30909 70.4064 11.5776 69.708 16.8511L75.5523 16.8534Z" fill="white"/>
<path d="M86.3963 11.4641C86.5906 10.9186 86.7861 10.4482 86.9497 9.97885L90.427 0.537948C90.4527 0.460616 90.4827 0.384746 90.5167 0.310675C90.5725 0.189932 90.6713 0.0942956 90.7938 0.0424056C90.9163 -0.00948437 91.0537 -0.0139091 91.1792 0.0299937C91.2972 0.0741686 91.3929 0.16332 91.4453 0.277915C91.4977 0.39251 91.5026 0.523202 91.4588 0.641357V0.653857C91.336 1.04249 91.1895 1.43227 91.0474 1.82204C89.7194 5.43264 88.3906 9.04287 87.061 12.6527C86.9917 12.8397 86.9556 13.0374 86.9542 13.2368V23.255C86.9542 23.6948 86.7963 23.905 86.4656 23.9186C86.3407 23.9317 86.2157 23.8946 86.1181 23.8155C86.0205 23.7365 85.9583 23.6219 85.9451 23.497V23.4538V13.2561C85.9429 13.0665 85.9087 12.8787 85.844 12.7004C84.4046 8.76559 82.9611 4.83302 81.5133 0.902721C81.4635 0.782229 81.4295 0.655801 81.4122 0.526584C81.3937 0.41995 81.418 0.31031 81.4799 0.221551C81.5419 0.132792 81.6364 0.0721084 81.7429 0.052721C81.8411 0.0243526 81.9462 0.0324193 82.0389 0.0754351C82.1316 0.118451 82.2057 0.193519 82.2474 0.286812C82.2925 0.37649 82.3305 0.469581 82.3611 0.565221L86.252 11.0743C86.2916 11.2072 86.3398 11.3374 86.3963 11.4641Z" fill="white"/>
</svg>
